<?xml version="1.0" encoding="iso-8859-1"?>
<!-- Generator: Adobe Illustrator 19.0.0, SVG Export Plug-In . SVG Version: 6.00 Build 0)  -->
<svg version="1.1" id="Layer_1" xmlns="http://www.w3.org/2000/svg" xmlns:xlink="http://www.w3.org/1999/xlink" x="0px" y="0px"
	 viewBox="0 0 490 490" style="enable-background:new 0 0 490 490;" xml:space="preserve">
<g>
	<g id="XMLID_31_">
		<g>
			<rect x="60" y="10" style="fill:#31C0D8;" width="55" height="470"/>
			<path style="fill:#FFD248;" d="M430,40v410c0,16.57-13.43,30-30,30H115V10h65v180v65l50-40l50,40v-65V10h120
				C416.57,10,430,23.44,430,40z"/>
			<polygon style="fill:#F4661E;" points="280,190 280,255 230,215 180,255 180,190 180,10 280,10 			"/>
		</g>
		<g>
			<path d="M400,0H280H180H60c-5.522,0-10,4.477-10,10v470c0,5.522,4.478,10,10,10h340c22.056,0,40-17.944,40-40V40
				C440,17.944,422.056,0,400,0z M190,20h80v214.193l-33.753-27.002C234.421,205.73,232.21,205,230,205s-4.421,0.73-6.247,2.191
				L190,234.193V20z M70,20h35v450H70V20z M420,450c0,11.028-8.972,20-20,20H125V20h45v235c0,3.844,2.203,7.348,5.668,9.013
				c3.466,1.668,7.578,1.196,10.579-1.204L230,227.807l43.753,35.002c1.809,1.446,4.019,2.191,6.249,2.191
				c1.472,0,2.952-0.325,4.33-0.987c3.465-1.665,5.668-5.169,5.668-9.013V20h110c11.028,0,20,8.972,20,20L420,450L420,450z"/>
			<rect x="150" y="385" width="60" height="20"/>
			<rect x="150" y="420" width="80" height="20"/>
		</g>
	</g>
</g>
<g>
</g>
<g>
</g>
<g>
</g>
<g>
</g>
<g>
</g>
<g>
</g>
<g>
</g>
<g>
</g>
<g>
</g>
<g>
</g>
<g>
</g>
<g>
</g>
<g>
</g>
<g>
</g>
<g>
</g>
</svg>
