<?xml version="1.0" encoding="iso-8859-1"?>
<!-- Generator: Adobe Illustrator 16.0.0, SVG Export Plug-In . SVG Version: 6.00 Build 0)  -->
<!DOCTYPE svg PUBLIC "-//W3C//DTD SVG 1.1//EN" "http://www.w3.org/Graphics/SVG/1.1/DTD/svg11.dtd">
<svg version="1.1" id="Capa_1" xmlns="http://www.w3.org/2000/svg" xmlns:xlink="http://www.w3.org/1999/xlink" x="0px" y="0px"
	 width="60.264px" height="60.264px" viewBox="0 0 60.264 60.264" style="enable-background:new 0 0 60.264 60.264;"
	 xml:space="preserve">
<g>
	<path d="M49.988,0H28.964H13.782h-3.504C4.612,0,0,4.616,0,10.277v39.71c0,5.666,4.616,10.276,10.277,10.276h3.504h15.183h21.024
		c5.666,0,10.275-4.615,10.275-10.276v-39.71C60.264,4.611,55.654,0,49.988,0z M1.869,10.277c0-3.537,2.191-6.553,5.289-7.792
		c-2.212,1.89-3.653,4.66-3.653,7.792v0.525H1.869V10.277z M1.869,12.671h1.636v10.392H1.869V12.671z M1.869,24.934h1.636v10.977
		H1.869V24.934z M1.869,37.781h1.636v11.271H1.869V37.781z M1.964,50.92h1.633c0.252,2.749,1.569,5.164,3.555,6.859
		C4.347,56.652,2.317,54.041,1.964,50.92z M19.855,58.396h-6.073c-4.317,0-7.841-3.28-8.313-7.473h3.245
		c0.435,2.039,2.245,3.576,4.413,3.576c2.485,0,4.512-2.025,4.512-4.512c0-2.489-2.022-4.515-4.512-4.515
		c-2.168,0-3.979,1.538-4.413,3.577h-3.34V37.781h3.34c0.435,2.039,2.245,3.576,4.413,3.576c2.485,0,4.512-2.025,4.512-4.514
		c0-2.491-2.022-4.517-4.512-4.517c-2.168,0-3.979,1.537-4.413,3.577h-3.34V24.927h3.34c0.435,2.04,2.245,3.576,4.413,3.576
		c2.485,0,4.512-2.024,4.512-4.512c0-2.488-2.022-4.513-4.512-4.513c-2.168,0-3.979,1.537-4.413,3.576h-3.34V12.662h3.34
		c0.435,2.039,2.245,3.576,4.413,3.576c2.485,0,4.512-2.024,4.512-4.514c0-2.491-2.022-4.516-4.512-4.516
		c-2.168,0-3.979,1.536-4.413,3.576h-3.34v-0.506c0-4.634,3.773-8.409,8.409-8.409h6.073V58.396L19.855,58.396z M10.67,49.052
		c0.383-0.994,1.326-1.701,2.456-1.701c1.454,0,2.642,1.182,2.642,2.642c0,1.455-1.188,2.641-2.642,2.641
		c-1.127,0-2.072-0.711-2.456-1.703h2.456v-1.878H10.67z M10.67,35.913c0.383-0.995,1.326-1.702,2.456-1.702
		c1.454,0,2.642,1.182,2.642,2.642c0,1.456-1.188,2.642-2.642,2.642c-1.127,0-2.072-0.712-2.456-1.704h2.456v-1.87H10.67V35.913z
		 M10.67,23.066c0.383-0.996,1.326-1.703,2.456-1.703c1.454,0,2.642,1.184,2.642,2.642c0,1.458-1.188,2.641-2.642,2.641
		c-1.127,0-2.072-0.711-2.456-1.703h2.456v-1.871H10.67V23.066z M10.67,10.803C11.054,9.807,11.997,9.1,13.126,9.1
		c1.454,0,2.642,1.184,2.642,2.642s-1.188,2.642-2.642,2.642c-1.127,0-2.072-0.712-2.456-1.703h2.456v-1.87H10.67V10.803z
		 M58.396,49.987c0,4.633-3.772,8.408-8.407,8.408H28.964h-7.241V1.868h7.241h21.024c4.633,0,8.407,3.768,8.407,8.409V49.987z
		 M26.173,44.658h26.648v1.871H26.173V44.658z M52.743,40.758h-26.57v-1.87h26.57V40.758z M26.173,50.425h26.648V52.3H26.173V50.425
		z M38.587,24.542l-0.958-8.075v-4.087h1.813h1.815v4.087l-0.944,8.075h-0.871H38.587z M37.687,25.85h3.513v3.308h-3.513V25.85z
		 M39.442,33.572c7.056,0,12.799-5.743,12.799-12.797c0-7.059-5.743-12.803-12.799-12.803c-7.057,0-12.8,5.744-12.8,12.803
		C26.642,27.829,32.386,33.572,39.442,33.572z M39.442,9.838c6.031,0,10.934,4.906,10.934,10.935s-4.902,10.93-10.934,10.93
		c-6.026,0-10.931-4.901-10.931-10.93S33.416,9.838,39.442,9.838z"/>
</g>
<g>
</g>
<g>
</g>
<g>
</g>
<g>
</g>
<g>
</g>
<g>
</g>
<g>
</g>
<g>
</g>
<g>
</g>
<g>
</g>
<g>
</g>
<g>
</g>
<g>
</g>
<g>
</g>
<g>
</g>
</svg>
